<?xml version="1.0" encoding="UTF-8"?><svg id="Layer_2" xmlns="http://www.w3.org/2000/svg" viewBox="0 0 198 41.15"><defs><style>.cls-1{fill:#fff;}</style></defs><g id="Layer_1-2"><g><path class="cls-1" d="M88.81,39.57c-1.84-.84-3.3-1.98-4.37-3.43-1.07-1.45-1.65-3.07-1.72-4.86h6.33c.11,1.25,.71,2.3,1.8,3.14,1.09,.84,2.46,1.26,4.1,1.26s3.05-.33,4-.99c.95-.66,1.42-1.51,1.42-2.55,0-1.11-.53-1.93-1.58-2.47s-2.73-1.13-5.02-1.77c-2.22-.61-4.02-1.2-5.42-1.77-1.4-.57-2.6-1.45-3.62-2.63s-1.53-2.74-1.53-4.67c0-1.57,.46-3.01,1.4-4.32,.93-1.31,2.26-2.33,4-3.09,1.73-.75,3.73-1.13,5.98-1.13,3.36,0,6.07,.85,8.13,2.55,2.06,1.7,3.16,4.02,3.3,6.95h-6.12c-.11-1.32-.64-2.38-1.61-3.17-.97-.79-2.27-1.18-3.92-1.18s-2.84,.3-3.7,.91c-.86,.61-1.29,1.41-1.29,2.41,0,.79,.29,1.45,.86,1.99s1.27,.96,2.09,1.26c.82,.3,2.04,.69,3.65,1.15,2.15,.57,3.91,1.15,5.28,1.74,1.38,.59,2.57,1.46,3.57,2.6,1,1.15,1.52,2.67,1.56,4.56,0,1.68-.47,3.18-1.4,4.51-.93,1.32-2.25,2.36-3.94,3.11-1.7,.75-3.69,1.13-5.98,1.13s-4.41-.42-6.25-1.26Z"/><path class="cls-1" d="M25.98,3.44v4.98h-9.91V40.67h-6.11V8.42H0V3.44H25.98Z"/><path class="cls-1" d="M24.62,17.9c1.23-2.29,2.91-4.06,5.04-5.33,2.12-1.27,4.47-1.9,7.05-1.9,2.32,0,4.35,.46,6.08,1.37s3.12,2.04,4.15,3.4v-4.29h6.16v29.52h-6.16v-4.39c-1.04,1.39-2.45,2.55-4.23,3.48-1.79,.93-3.82,1.39-6.11,1.39-2.54,0-4.86-.65-6.96-1.96-2.11-1.3-3.78-3.12-5.01-5.46-1.23-2.34-1.85-4.99-1.85-7.96s.62-5.59,1.85-7.88Zm21.05,2.68c-.84-1.5-1.94-2.64-3.29-3.43-1.36-.79-2.82-1.18-4.39-1.18s-3.04,.38-4.39,1.15c-1.36,.77-2.46,1.89-3.29,3.38-.84,1.48-1.26,3.24-1.26,5.28s.42,3.82,1.26,5.36c.84,1.54,1.95,2.71,3.32,3.51s2.83,1.21,4.37,1.21,3.04-.39,4.39-1.18c1.36-.79,2.46-1.94,3.29-3.46,.84-1.52,1.26-3.29,1.26-5.33s-.42-3.8-1.26-5.3Z"/><path class="cls-1" d="M60.52,5.7c-.64-.64-.96-1.43-.96-2.37s.32-1.73,.96-2.37,1.43-.96,2.37-.96,1.69,.32,2.33,.96,.96,1.43,.96,2.37-.32,1.73-.96,2.37-1.41,.96-2.33,.96-1.73-.32-2.37-.96Z"/><rect class="cls-1" x="59.79" y="11.15" width="6.11" height="29.52"/><path class="cls-1" d="M78.7,1.03V40.67h-6.11V1.03h6.11Z"/><path class="cls-1" d="M116.46,1.03V40.67h-6.11V1.03h6.11Z"/><path class="cls-1" d="M123.89,5.7c-.64-.64-.96-1.43-.96-2.37s.32-1.73,.96-2.37,1.43-.96,2.37-.96,1.69,.32,2.33,.96,.96,1.43,.96,2.37-.32,1.73-.96,2.37-1.41,.96-2.33,.96-1.73-.32-2.37-.96Z"/><rect class="cls-1" x="123.16" y="11.15" width="6.11" height="29.52"/><path class="cls-1" d="M135.77,17.9c1.23-2.29,2.91-4.06,5.04-5.33,2.12-1.27,4.49-1.9,7.1-1.9,1.93,0,3.83,.42,5.71,1.26,1.88,.84,3.37,1.96,4.47,3.35V1.03h6.16V40.67h-6.16v-4.45c-1,1.43-2.38,2.61-4.15,3.54-1.77,.93-3.79,1.39-6.08,1.39-2.57,0-4.92-.65-7.05-1.96-2.12-1.3-3.8-3.12-5.04-5.46-1.23-2.34-1.85-4.99-1.85-7.96s.62-5.59,1.85-7.88Zm21.05,2.68c-.84-1.5-1.94-2.64-3.29-3.43-1.36-.79-2.82-1.18-4.39-1.18s-3.04,.38-4.39,1.15c-1.36,.77-2.46,1.89-3.29,3.38-.84,1.48-1.26,3.24-1.26,5.28s.42,3.82,1.26,5.36c.84,1.54,1.95,2.71,3.32,3.51s2.83,1.21,4.37,1.21,3.04-.39,4.39-1.18c1.36-.79,2.46-1.94,3.29-3.46,.84-1.52,1.26-3.29,1.26-5.33s-.42-3.8-1.26-5.3Z"/><path class="cls-1" d="M197.79,28.19h-22.56c.18,2.36,1.05,4.25,2.63,5.68,1.57,1.43,3.5,2.14,5.79,2.14,3.29,0,5.61-1.37,6.96-4.12h6.59c-.89,2.71-2.51,4.94-4.85,6.67s-5.24,2.6-8.71,2.6c-2.82,0-5.35-.63-7.58-1.9-2.23-1.27-3.98-3.05-5.25-5.36s-1.9-4.97-1.9-8.01,.62-5.71,1.85-8.01c1.23-2.3,2.96-4.08,5.2-5.33,2.23-1.25,4.79-1.88,7.69-1.88s5.27,.61,7.45,1.82c2.18,1.21,3.88,2.92,5.09,5.12,1.21,2.2,1.82,4.72,1.82,7.58,0,1.11-.07,2.11-.21,3Zm-6.16-4.93c-.04-2.25-.84-4.05-2.41-5.41-1.57-1.36-3.52-2.04-5.84-2.04-2.11,0-3.91,.67-5.41,2.01-1.5,1.34-2.39,3.15-2.68,5.44h16.34Z"/></g></g></svg>