<?xml version="1.0" encoding="UTF-8"?><svg id="Layer_2" xmlns="http://www.w3.org/2000/svg" viewBox="0 0 80.29 82.99"><defs><style>.cls-1{fill:#2285e1;}</style></defs><g id="Layer_1-2"><g id="LINE"><path class="cls-1" d="M80.29,18.67V51.29c0,12.66-5.86,23.95-15.02,31.3-4.94,1.01-10.09,.1-14.4-2.55l-8.39-5.14,1.16-6.58c.54-3.04,.81-6.12,.81-9.21v-8.08l22.89,10.68v-3.85c0-2.37-1.05-4.64-2.87-6.17l-20.02-16.79v-6.67c0-3.04-1.2-5.95-3.35-8.09l-.95-.95-.95,.95c-2.14,2.14-3.35,5.05-3.35,8.09v6.67L15.84,51.7c-1.82,1.53-2.88,3.79-2.88,6.17v3.85l22.89-10.68v8.08c0,3.08,.28,6.17,.81,9.21l1.16,6.58-8.4,5.14c-4.3,2.64-9.45,3.55-14.4,2.55C5.86,75.24,0,63.96,0,51.29V18.67c0-2.96,2.4-5.35,5.36-5.35,11.52,0,22.64-4.25,31.21-11.95,2.04-1.83,5.12-1.83,7.16,0,8.56,7.71,19.68,11.96,31.21,11.95,2.96,0,5.35,2.4,5.35,5.35Z"/></g></g></svg>